# xmcd
#
# Track frame offsets:
#	150
#	18130
#	35484
#	49502
#	62746
#	80250
#	96759
#	110840
#	125267
#	140777
#	157394
#	172443
#	190165
#	205501
#	222004
#	237793
#	252964
#	270602
#	287494
#
# Disc length: 4010 seconds
#
# Revision: 3
# Processed by: cddbd v1.5.1PL0 Copyright (c) Steve Scherf et al.
# Submitted via: audiograbber 1.83.01
#
DISCID=130fa813
DTITLE=1996-10 Country Radio - 1996-10 Country Radio
DYEAR=1996
DGENRE=Country
TTITLE0=Faith Hill - I Can't Do That Anymore
TTITLE1=Tim Mcgraw - Maybe We Should Just Sleep On It
TTITLE2=Bryan White - That's Another Song
TTITLE3=Jeff Wood - You Just Get One
TTITLE4=Pam Tillis - Betty's Got A Bass Boat
TTITLE5=Billy Dean - I Wouldn't Be A Man
TTITLE6=Aaron Tippin - How's The Radio Know
TTITLE7=Burnin' Daylight - Love Worth Fighting For
TTITLE8=Daryle Singletary - Amen Kind Of Love
TTITLE9=Leann Rimes - One Way Ticket (Because I Can)
TTITLE10=Blackhawk - King Of The World
TTITLE11=Caryl Mack Parker - Better Love Next Time
TTITLE12=Thrasher - Shiver - Closer
TTITLE13=Chris Ledoux - Five Dollar Fine
TTITLE14=Steve Azar - Nights Like This
TTITLE15=James T. Horn - If Dreams Have Wings
TTITLE16=Orville Davis - Howl At The Moon
TTITLE17=Highway Angels - Convoy Preacher Part 1 (Remix)
TTITLE18=Dave Durham and Bull Durham The Band - Wabash
EXTD=
EXTT0=
EXTT1=
EXTT2=
EXTT3=
EXTT4=
EXTT5=
EXTT6=
EXTT7=
EXTT8=
EXTT9=
EXTT10=
EXTT11=
EXTT12=
EXTT13=
EXTT14=
EXTT15=
EXTT16=
EXTT17=
EXTT18=
PLAYORDER=
